<svg width="473" height="237" viewBox="0 0 473 237" fill="none" xmlns="http://www.w3.org/2000/svg">
<path d="M236.5 0L403.731 69.2692L473 236.5H403.731H236.5H69.2692H0L69.2692 69.2692L236.5 0Z" fill="white"/>
<path fill-rule="evenodd" clip-rule="evenodd" d="M230.828 139H234.432V142.53H230.828V139ZM227.307 142.531H230.828H230.838H234.432V143.919L227.7 146.061H227.234V142.545H223.703V139.016H227.307V142.531ZM227.229 146.211V146.059H223.625V149.589H223.98L226.256 146.521L227.229 146.211ZM223.62 150.074V149.588H220.026V146.061H223.62V142.531H220.016V146.059H216.422V149.588V149.589V153.118H220.016H220.026H221.362L223.62 150.074ZM220.011 156.647H216.422V160.177H220.011V156.647ZM220.011 160.179H216.422V163.708H220.026V163.708H220.011V160.179ZM252.39 163.708V163.708H255.994V163.648H259.53V160.118H255.994V156.647V156.647V153.118H252.39V154.504L252.712 154.939V160.177H255.926V160.179H252.712V163.708H252.39ZM252.385 154.497V153.118V153.118V149.588H248.781V149.639L252.385 154.497ZM248.645 149.456H248.854V146.038H252.401V142.508H248.796V145.926H245.249V146.133L246.467 146.521L248.645 149.456ZM245.023 146.061H245.182V142.531H241.651H241.578H238.046V143.841L245.023 146.061ZM238.041 143.84V142.531H234.437V143.917L236.362 143.305L238.041 143.84ZM216.417 153.118H212.812V156.647H216.417V153.118ZM238.046 139H241.651V142.53H238.046V139ZM255.994 146.059H252.39V149.589H255.994V146.059ZM245.156 139H248.76V142.53H245.156V139Z" fill="black"/>
<mask id="path-3-inside-1_672_93" fill="white">
<path fill-rule="evenodd" clip-rule="evenodd" d="M247.196 146.045L236.721 142.748L226.247 146.045L219.773 154.678V163.667H253.669V154.678L247.196 146.045Z"/>
</mask>
<path d="M236.721 142.748L237.679 139.706L236.721 139.404L235.764 139.706L236.721 142.748ZM247.196 146.045L249.747 144.132L249.132 143.311L248.153 143.003L247.196 146.045ZM226.247 146.045L225.289 143.003L224.311 143.311L223.695 144.132L226.247 146.045ZM219.773 154.678L217.222 152.764L216.584 153.615V154.678H219.773ZM219.773 163.667H216.584V166.856H219.773V163.667ZM253.669 163.667V166.856H256.858V163.667H253.669ZM253.669 154.678H256.858V153.615L256.221 152.764L253.669 154.678ZM235.764 145.79L246.238 149.088L248.153 143.003L237.679 139.706L235.764 145.79ZM227.205 149.088L237.679 145.79L235.764 139.706L225.289 143.003L227.205 149.088ZM222.325 156.591L228.799 147.959L223.695 144.132L217.222 152.764L222.325 156.591ZM222.963 163.667V154.678H216.584V163.667H222.963ZM219.773 166.856H253.669V160.477H219.773V166.856ZM250.48 154.678V163.667H256.858V154.678H250.48ZM244.644 147.959L251.117 156.591L256.221 152.764L249.747 144.132L244.644 147.959Z" fill="black" mask="url(#path-3-inside-1_672_93)"/>
<path d="M216.63 166.257H218.579V168.166H216.63V166.257Z" fill="black"/>
<path d="M243.345 166.257H245.294V168.166H243.345V166.257Z" fill="black"/>
<path d="M208 172.594L210.025 172.621C210.094 173.538 210.838 174.172 212.022 174.172C212.973 174.172 213.675 173.767 213.675 173.025C213.675 172.23 212.89 172.068 211.278 171.757C209.653 171.461 208.22 170.948 208.22 169.033C208.22 167.36 209.639 166.173 211.815 166.173C214.088 166.173 215.535 167.333 215.562 169.141H213.537C213.441 168.345 212.821 167.792 211.815 167.792C210.934 167.792 210.3 168.156 210.3 168.884C210.3 169.653 211.058 169.815 212.656 170.112C214.309 170.409 215.769 170.894 215.755 172.796C215.741 174.563 214.254 175.777 211.995 175.777C209.543 175.777 208.014 174.509 208 172.594Z" fill="black"/>
<path d="M216.636 175.696V168.763H218.592V175.696H216.636Z" fill="black"/>
<path d="M219.725 175.696V166.254H221.668V175.696H219.725Z" fill="black"/>
<path d="M226.313 175.777C223.958 175.777 222.539 174.388 222.539 172.243C222.539 170.085 223.985 168.682 226.175 168.682C228.297 168.682 229.729 169.977 229.757 172.014C229.757 172.216 229.743 172.445 229.702 172.661H224.564V172.756C224.605 173.74 225.253 174.334 226.231 174.334C227.016 174.334 227.567 173.997 227.732 173.349H229.647C229.426 174.698 228.2 175.777 226.313 175.777ZM224.605 171.42H227.801C227.663 170.57 227.071 170.098 226.189 170.098C225.349 170.098 224.715 170.597 224.605 171.42Z" fill="black"/>
<path d="M234.675 168.682C236.204 168.682 237.512 169.478 237.512 171.852V175.696H235.57V172.041C235.57 170.867 235.116 170.247 234.138 170.247C233.132 170.247 232.554 170.948 232.554 172.149V175.696H230.611V168.763H232.306L232.485 169.626C232.939 169.087 233.587 168.682 234.675 168.682Z" fill="black"/>
<path d="M239.039 173.713V170.368H237.868V168.763H239.039V166.82H240.981V168.763H242.607V170.368H240.981V173.403C240.981 173.889 241.174 174.091 241.684 174.091H242.648V175.696H241.064C239.714 175.696 239.039 175.035 239.039 173.713Z" fill="black"/>
<path d="M243.34 175.696V168.763H245.296V175.696H243.34Z" fill="black"/>
<path d="M251.154 172.23V168.763H253.096V175.696H251.374L251.195 174.86C250.741 175.4 250.121 175.777 249.115 175.777C247.655 175.777 246.305 175.062 246.305 172.607V168.763H248.248V172.351C248.248 173.592 248.661 174.199 249.625 174.199C250.589 174.199 251.154 173.511 251.154 172.23Z" fill="black"/>
<path d="M262.711 168.682C264.171 168.682 265.328 169.491 265.328 171.717V175.696H263.386V171.825C263.386 170.786 263 170.247 262.16 170.247C261.32 170.247 260.755 170.854 260.755 171.906V175.696H258.813V171.825C258.813 170.786 258.427 170.247 257.573 170.247C256.733 170.247 256.182 170.881 256.182 171.919V175.696H254.24V168.763H255.934L256.113 169.626C256.54 169.087 257.16 168.695 258.193 168.682C259.061 168.668 259.874 168.979 260.314 169.855C260.81 169.114 261.637 168.682 262.711 168.682Z" fill="black"/>
</svg>
