<svg width="469" height="271" viewBox="0 0 469 271" fill="none" xmlns="http://www.w3.org/2000/svg">
<path d="M110.189 180.382L162.26 270.572H58.1172L110.189 180.382Z" fill="black"/>
<path d="M416.845 180.382L468.916 270.572H364.773L416.845 180.382Z" fill="black"/>
<path d="M416.827 90.1904L364.756 180.381H468.898L416.827 90.1904Z" fill="black"/>
<path d="M110.189 90.1904L162.26 180.381H58.1172L110.189 90.1904Z" fill="black"/>
<path d="M260.491 90.1904L208.42 180.381H312.562L260.491 90.1904Z" fill="black"/>
<path d="M104.189 0L156.26 90.1906H52.1172L104.189 0Z" fill="black"/>
<path d="M312.626 0L364.698 90.1906H260.555L312.626 0Z" fill="black"/>
<path d="M208.389 180.382L156.318 90.1913H260.461L208.389 180.382Z" fill="black"/>
<path d="M260.491 270.572L208.42 180.382H312.562L260.491 270.572Z" fill="black"/>
<path d="M58.0871 270.572L110.159 180.382H6.01562L58.0871 270.572Z" fill="black"/>
<path d="M364.728 270.572L416.799 180.382H312.656L364.728 270.572Z" fill="black"/>
<path d="M58.0871 180.382L110.159 90.1913H6.01562L58.0871 180.382Z" fill="black"/>
<path d="M364.718 180.382L312.646 90.1913H416.789L364.718 180.382Z" fill="black"/>
<path d="M52.0715 90.1904L104.143 -0.00012207H0L52.0715 90.1904Z" fill="black"/>
<path d="M364.728 90.1904L416.799 -0.00012207H312.656L364.728 90.1904Z" fill="black"/>
</svg>
