<svg width="469" height="271" viewBox="0 0 469 271" fill="none" xmlns="http://www.w3.org/2000/svg">
<path d="M104.189 180.382L156.26 270.572H52.1172L104.189 180.382Z" fill="black"/>
<path d="M104.189 90.1904L156.26 180.381H52.1172L104.189 90.1904Z" fill="black"/>
<path d="M260.509 90.1904L312.58 180.381H208.438L260.509 90.1904Z" fill="black"/>
<path d="M416.845 90.1904L468.916 180.381H364.773L416.845 90.1904Z" fill="black"/>
<path d="M104.189 0L156.26 90.1906H52.1172L104.189 0Z" fill="black"/>
<path d="M416.845 0L468.916 90.1906H364.773L416.845 0Z" fill="black"/>
<path d="M208.407 180.382L260.479 270.572H156.336L208.407 180.382Z" fill="black"/>
<path d="M416.845 180.382L468.916 270.572H364.773L416.845 180.382Z" fill="black"/>
<path d="M52.0715 270.572L104.143 180.382H0L52.0715 270.572Z" fill="black"/>
<path d="M52.0715 180.382L104.143 90.1913H0L52.0715 180.382Z" fill="black"/>
<path d="M208.407 180.382L260.479 90.1913H156.336L208.407 180.382Z" fill="black"/>
<path d="M364.728 180.382L416.799 90.1913H312.656L364.728 180.382Z" fill="black"/>
<path d="M52.0715 90.1904L104.143 -0.00012517H0L52.0715 90.1904Z" fill="black"/>
<path d="M208.407 90.1904L260.479 -0.00012517H156.336L208.407 90.1904Z" fill="black"/>
<path d="M364.728 90.1904L416.799 -0.00012517H312.656L364.728 90.1904Z" fill="black"/>
<path d="M156.29 270.572L208.362 180.382H104.219L156.29 270.572Z" fill="black"/>
<path d="M260.509 270.572L312.58 180.382H208.438L260.509 270.572Z" fill="black"/>
<path d="M364.728 270.572L416.799 180.382H312.656L364.728 270.572Z" fill="black"/>
</svg>
