<svg width="878" height="135" viewBox="0 0 878 135" fill="none" xmlns="http://www.w3.org/2000/svg">
<path d="M103.981 90L129.962 135H78L103.981 90Z" fill="white"/>
<path d="M103.981 45L129.962 90H78L103.981 45Z" fill="white"/>
<path d="M103.981 0L129.962 45H78L103.981 0Z" fill="white"/>
<path d="M155.981 0L181.962 45H130L155.981 0Z" fill="white"/>
<path d="M51.9808 0L77.9615 45H26L51.9808 0Z" fill="white"/>
<path d="M77.9808 135L103.962 90H52L77.9808 135Z" fill="white"/>
<path d="M77.9808 90L103.962 45H52L77.9808 90Z" fill="white"/>
<path d="M77.9808 45L103.962 0H52L77.9808 45Z" fill="white"/>
<path d="M129.981 45L155.962 0H104L129.981 45Z" fill="white"/>
<path d="M25.9808 45L51.9615 0H0L25.9808 45Z" fill="white"/>
<path d="M283.981 90L309.962 135H258L283.981 90Z" fill="white"/>
<path d="M387.981 90L413.962 135H362L387.981 90Z" fill="white"/>
<path d="M335.981 45L361.962 90H310L335.981 45Z" fill="white"/>
<path d="M335.981 0L361.962 45H310L335.981 0Z" fill="white"/>
<path d="M361.98 90L335.999 45L387.961 45L361.98 90Z" fill="white"/>
<path d="M283.981 45L309.962 90H258L283.981 45Z" fill="white"/>
<path d="M387.981 45L413.962 90H362L387.981 45Z" fill="white"/>
<path d="M283.981 0L309.962 45H258L283.981 0Z" fill="white"/>
<path d="M387.981 0L413.962 45H362L387.981 0Z" fill="white"/>
<path d="M257.981 135L283.962 90H232L257.981 135Z" fill="white"/>
<path d="M309.981 135L335.962 90H284L309.981 135Z" fill="white"/>
<path d="M361.981 135L387.962 90H336L361.981 135Z" fill="white"/>
<path d="M257.981 90L283.962 45H232L257.981 90Z" fill="white"/>
<path d="M361.981 90L387.962 45H336L361.981 90Z" fill="white"/>
<path d="M257.981 45L283.962 0H232L257.981 45Z" fill="white"/>
<path d="M361.981 45L387.962 0H336L361.981 45Z" fill="white"/>
<path d="M515.981 90L541.962 135H490L515.981 90Z" fill="white"/>
<path d="M515.981 45L541.962 90H490L515.981 45Z" fill="white"/>
<path d="M593.981 45L619.962 90H568L593.981 45Z" fill="white"/>
<path d="M671.981 45L697.962 90H646L671.981 45Z" fill="white"/>
<path d="M515.981 0L541.962 45H490L515.981 0Z" fill="white"/>
<path d="M671.981 0L697.962 45H646L671.981 0Z" fill="white"/>
<path d="M567.981 90L593.962 135H542L567.981 90Z" fill="white"/>
<path d="M671.981 90L697.962 135H646L671.981 90Z" fill="white"/>
<path d="M489.981 135L515.962 90H464L489.981 135Z" fill="white"/>
<path d="M489.981 90L515.962 45H464L489.981 90Z" fill="white"/>
<path d="M567.981 90L593.962 45H542L567.981 90Z" fill="white"/>
<path d="M645.981 90L671.962 45H620L645.981 90Z" fill="white"/>
<path d="M489.981 45L515.962 0H464L489.981 45Z" fill="white"/>
<path d="M567.981 45L593.962 0H542L567.981 45Z" fill="white"/>
<path d="M645.981 45L671.962 0H620L645.981 45Z" fill="white"/>
<path d="M541.981 135L567.962 90H516L541.981 135Z" fill="white"/>
<path d="M593.981 135L619.962 90H568L593.981 135Z" fill="white"/>
<path d="M645.981 135L671.962 90H620L645.981 135Z" fill="white"/>
<path d="M799.981 90L825.962 135H774L799.981 90Z" fill="white"/>
<path d="M851.981 90L877.962 135H826L851.981 90Z" fill="white"/>
<path d="M799.981 45L825.962 90H774L799.981 45Z" fill="white"/>
<path d="M851.981 45L877.962 90H826L851.981 45Z" fill="white"/>
<path d="M799.981 0L825.962 45H774L799.981 0Z" fill="white"/>
<path d="M851.981 0L877.962 45H826L851.981 0Z" fill="white"/>
<path d="M773.981 135L799.962 90H748L773.981 135Z" fill="white"/>
<path d="M826.176 45L852.157 0H800.195L826.176 45Z" fill="white"/>
<path d="M773.981 90L799.962 45H748L773.981 90Z" fill="white"/>
<path d="M773.981 45L799.962 0H748L773.981 45Z" fill="white"/>
</svg>
