<svg width="313" height="271" viewBox="0 0 313 271" fill="none" xmlns="http://www.w3.org/2000/svg">
<path d="M52.2332 180.382L0.161751 270.572H104.305L52.2332 180.382Z" fill="black"/>
<path d="M208.554 90.1904L156.482 180.381H260.625L208.554 90.1904Z" fill="black"/>
<path d="M104.335 0L52.2633 90.1906H156.406L104.335 0Z" fill="black"/>
<path d="M208.554 0L156.482 90.1906H260.625L208.554 0Z" fill="black"/>
<path d="M260.671 180.382L208.599 90.1913H312.742L260.671 180.382Z" fill="black"/>
<path d="M52.2332 90.1904L0.161751 -0.00012207H104.305L52.2332 90.1904Z" fill="black"/>
<path d="M156.452 180.382L104.381 90.1913H208.523L156.452 180.382Z" fill="black"/>
<path d="M104.335 270.572L52.2633 180.382H156.406L104.335 270.572Z" fill="black"/>
<path d="M260.671 90.1904L208.599 -0.00012207H312.742L260.671 90.1904Z" fill="black"/>
</svg>
